<?xml version="1.0" encoding="UTF-8"?>
<svg version="1.1" xmlns="http://www.w3.org/2000/svg" width="65" height="63">
<path d="M0 0 C21.45 0 42.9 0 65 0 C65 20.79 65 41.58 65 63 C43.55 63 22.1 63 0 63 C0 42.21 0 21.42 0 0 Z " fill="#069DEF" transform="translate(0,0)"/>
<path d="M0 0 C21.45 0 42.9 0 65 0 C65 20.79 65 41.58 65 63 C43.55 63 22.1 63 0 63 C0 42.21 0 21.42 0 0 Z M10 10 C5.66807588 15.9656416 6.48596089 22.20519949 6.5 29.3125 C6.47164063 30.60607422 6.44328125 31.89964844 6.4140625 33.23242188 C6.40051765 39.85246554 6.58058738 44.95160781 10.43554688 50.47338867 C14.45401158 54.39465268 17.81767082 55.381402 23.3671875 55.3984375 C24.58277344 55.40230469 25.79835938 55.40617187 27.05078125 55.41015625 C28.94376953 55.39275391 28.94376953 55.39275391 30.875 55.375 C32.12925781 55.38660156 33.38351563 55.39820313 34.67578125 55.41015625 C41.16360387 55.38955999 46.3452054 55.33057818 52 52 C58.39029115 45.44154329 57.27816378 37.86314455 57.375 29.1875 C57.41238281 27.92873047 57.44976562 26.66996094 57.48828125 25.37304688 C57.68568792 17.71669144 57.68568792 17.71669144 54.8515625 10.80078125 C47.89017083 3.96335957 40.79844837 4.48170193 31.5625 4.5 C30.26505859 4.47164063 28.96761719 4.44328125 27.63085938 4.4140625 C20.08892225 4.39861562 15.4380676 4.55428393 10 10 Z " fill="#0D172B" transform="translate(0,0)"/>
<path d="M0 0 C4.29 0 8.58 0 13 0 C13 0.99 13 1.98 13 3 C10.03 3 7.06 3 4 3 C4 3.99 4 4.98 4 6 C6.64 6 9.28 6 12 6 C12 6.99 12 7.98 12 9 C9.36 9 6.72 9 4 9 C4 10.32 4 11.64 4 13 C6.97 13 9.94 13 13 13 C13 13.99 13 14.98 13 16 C8.71 16 4.42 16 0 16 C0 10.72 0 5.44 0 0 Z " fill="#EEF9FD" transform="translate(34,21)"/>
<path d="M0 0 C1.77734375 1.52734375 1.77734375 1.52734375 3 3 C-0.73437848 3.87867729 -4.16774573 4.08912219 -8 4 C-8.16681109 6.91652174 -8.16681109 6.91652174 -8 10 C-7.34 10.66 -6.68 11.32 -6 12 C-2.40320934 11.67673447 -2.40320934 11.67673447 1 11 C1.99 12.485 1.99 12.485 3 14 C-0.6894 16.4596 -3.71832808 16.7996897 -8 16 C-11 13.9375 -11 13.9375 -13 11 C-13.6198676 7.07417186 -13.58925458 4.99917081 -11.5625 1.5625 C-7.88159776 -0.68195258 -4.21225944 -0.86106961 0 0 Z " fill="#E9F6FE" transform="translate(30,21)"/>
</svg>
